<svg width="44" height="18" viewBox="0 0 44 18" fill="none" xmlns="http://www.w3.org/2000/svg">
<path d="M15.8514 18C15.1657 15.5122 15.5066 12.9882 15.4545 10.4798C15.4023 7.98336 15.4358 5.48351 15.447 2.9871C15.4507 2.33631 15.6967 2.06084 16.3954 2.11938C17.3196 2.19685 18.1209 1.6838 19.0451 1.78194C19.4829 1.82842 19.7382 1.83186 19.7103 2.33631C19.6637 3.18336 19.6972 4.03386 19.6972 4.88436C19.6972 5.13401 19.6674 5.3871 19.7028 5.63329C19.8258 6.47346 20.3885 6.88494 21.1953 6.54577C22.6394 5.93975 23.968 6.41665 25.2816 6.79369C26.8114 7.23272 27.1393 8.55152 27.1915 9.7584C27.3108 12.4511 27.2288 15.1524 27.2288 17.9242C25.8648 18 24.5009 18 23.0531 18C22.4158 17.4215 22.4959 16.7087 22.481 16.0184C22.4438 14.3828 22.5574 12.7438 22.4102 11.1116C22.3487 10.4281 22.0879 9.81176 21.1525 9.8462C20.2246 9.88063 20.2246 10.5555 20.2078 11.1478C20.1612 12.7334 20.2041 14.3208 20.1854 15.9082C20.178 16.5469 20.2562 17.2046 19.7811 17.895C18.4432 18 17.1874 18 15.8514 18Z" fill="#6A5751"/>
<path d="M27.8027 0C27.8325 0.318507 27.9853 0.531997 28.2145 0.778195C28.712 1.31191 28.6859 1.5013 28.153 1.99713C27.0089 3.06456 25.8406 4.10961 24.6965 5.17704C24.4189 5.43701 24.2474 5.38019 23.8916 5.22869C22.8201 4.77072 22.1997 3.88407 21.4115 3.16786C21.1842 2.96126 21.2065 2.42238 21.5177 2.08665C21.7282 1.85939 21.9593 1.62353 22.304 1.93859C22.727 2.32597 23.1574 2.70818 23.5729 3.10416C23.8897 3.40545 24.2679 3.42783 24.5661 3.17475C25.6114 2.28809 26.5841 1.33773 27.2288 0.0757535C27.3927 4.20738e-07 27.5567 0 27.8027 0Z" fill="#6A5751"/>
<path fill-rule="evenodd" clip-rule="evenodd" d="M38.7877 15.8846C39.1822 15.7381 39.5773 15.5913 39.9999 15.5242C39.9999 12.8006 39.9999 10.1492 39.9217 7.50129C39.8935 7.50194 39.8659 7.50288 39.8389 7.50379C39.5816 7.51248 39.3819 7.51923 39.3515 7.2637C39.3392 7.16301 39.3444 7.05078 39.3495 6.93955C39.3592 6.72937 39.3686 6.52281 39.2602 6.40459C38.1925 5.24419 36.9813 4.29555 35.1944 4.18709C34.6393 4.15352 34.1023 4.24016 33.5696 4.3261C33.1189 4.39882 32.6714 4.47102 32.2187 4.46944C31.328 4.466 30.6069 4.73803 29.8616 5.0858C29.8284 5.10154 29.7949 5.11444 29.7625 5.12694C29.6564 5.16777 29.5614 5.20435 29.5244 5.32167C29.3495 5.88179 29.5542 6.40159 29.7512 6.9019C29.8019 7.03056 29.8521 7.15792 29.8952 7.28436C30.004 7.60364 30.3579 7.55985 30.7151 7.51566C30.8837 7.4948 31.053 7.47384 31.1976 7.49096C31.4038 7.51454 31.6134 7.50866 31.8233 7.50278C31.9965 7.49792 32.1699 7.49306 32.3417 7.50474C32.529 7.5172 32.686 7.41561 32.8395 7.31618C33.0464 7.18223 33.2472 7.05222 33.5081 7.21033C33.8845 7.43759 34.2609 7.47719 34.6895 7.51506C35.2559 7.56499 35.4367 7.85939 35.4162 8.44648C35.3975 8.9888 35.1404 9.27805 34.5832 9.29182C34.105 9.30407 33.6268 9.30136 33.1489 9.29866C32.7535 9.29643 32.3583 9.29419 31.9634 9.30043C31.069 9.31592 30.2697 9.67403 29.5337 10.07C28.8945 10.4143 28.5331 11.0186 28.3542 11.709C28.1045 12.6732 28.002 13.6666 28.5647 14.5153C29.2672 15.5759 30.4374 16.2869 31.7361 16.4539C32.7766 16.5865 33.8413 16.5559 34.9059 16.5252C35.3761 16.5117 35.8462 16.4982 36.3143 16.4987C36.4949 16.4987 36.6779 16.4316 36.8413 16.3718C36.9694 16.3248 37.0855 16.2823 37.1789 16.28C37.7548 16.2683 38.2708 16.0767 38.7877 15.8846ZM34.3515 11.4023C33.8555 11.3501 33.3425 11.2962 32.8782 11.7745C32.8323 11.8169 32.7991 11.8491 32.7732 11.8743C32.7317 11.9145 32.7089 11.9366 32.6825 11.9536C32.1124 12.3048 31.9335 12.8746 32.2037 13.3533C32.4459 13.7837 32.8875 14.1366 33.6161 14.1246C33.6681 14.1237 33.7186 14.1228 33.7678 14.122C35.4813 14.0933 35.4813 14.0933 35.4179 12.4012C35.416 12.3507 35.4217 12.297 35.4273 12.2435C35.4382 12.1403 35.449 12.0382 35.4048 11.9622C35.2837 11.7573 35.0769 11.4198 34.9297 11.4302C34.7424 11.4434 34.5483 11.423 34.3515 11.4023Z" fill="#6A5751"/>
<path fill-rule="evenodd" clip-rule="evenodd" d="M3.60745 10.6933C3.23665 10.9343 2.99815 11.3148 3.00001 11.7332C3.00187 12.6887 3.0112 13.6167 3.05592 14.5412C3.06337 14.722 3.18821 14.858 3.35405 14.9458C3.44162 14.9905 3.51802 15.0491 3.58696 15.1162C4.23119 15.7462 5.09099 15.968 5.94216 16.1875C6.27269 16.2727 6.60192 16.3576 6.91671 16.466C7.88191 16.8 12.0893 16.3903 13.1011 16.0959L13.1028 16.0954C14.4539 15.7016 14.4557 15.7011 14.4576 14.4138C14.4581 13.8592 14.4534 13.3045 14.4487 12.7498C14.4373 11.4051 14.4259 10.0605 14.4892 8.71852C14.5167 8.14066 14.3438 7.63014 14.1746 7.13081C14.1487 7.0544 14.1229 6.97825 14.098 6.90217C13.7365 5.80031 12.8439 4.91882 11.6924 4.60031C10.9415 4.39199 10.0844 4.24737 9.24773 4.18367C8.80116 4.15029 8.37838 4.25673 7.95783 4.36261C7.59751 4.45332 7.23884 4.54363 6.86826 4.54521C6.63535 4.54521 6.41363 4.60719 6.21053 4.71393C6.02935 4.80818 5.80868 4.80675 5.58624 4.8053C5.26421 4.8032 4.93849 4.80108 4.72358 5.08925C4.69879 5.12241 4.6459 5.13425 4.58522 5.14783C4.47262 5.17303 4.33322 5.20423 4.2969 5.38883C4.21627 5.80529 4.3453 6.18947 4.47463 6.57453C4.59337 6.92809 4.71237 7.2824 4.66956 7.66314C4.64906 7.84736 5.06645 7.86285 5.22856 7.79054C6.0413 7.42986 6.8866 7.46621 7.73111 7.50252C8.16445 7.52116 8.59758 7.53978 9.026 7.50475C9.55519 7.46171 9.77879 7.77849 9.86636 8.18997C9.88943 8.2985 9.88358 8.41139 9.87771 8.52466C9.87314 8.61264 9.86857 8.70084 9.87753 8.78739C9.9148 9.14722 9.81976 9.33488 9.35579 9.30905C9.04975 9.29208 8.74208 9.29825 8.43449 9.30441C8.08662 9.31137 7.73887 9.31834 7.39373 9.29184C5.93103 9.18165 4.71054 9.61207 3.72858 10.5951C3.68945 10.6347 3.64845 10.6674 3.60745 10.6933ZM10.1951 12.911C10.1982 12.8205 10.2017 12.7183 10.2017 12.5992C10.2614 12.031 9.92599 11.666 9.70425 11.4749C9.46947 11.2735 8.82475 11.2804 8.48004 11.4302C8.40203 11.4638 8.32168 11.4963 8.24045 11.5292C7.80558 11.7052 7.34593 11.8913 7.09001 12.3048C6.84032 12.7042 6.81237 13.1209 7.1105 13.5117C7.54838 14.0867 9.2291 14.3604 9.86076 13.9541C10.0769 13.8164 10.2651 13.6408 10.2092 13.3429C10.1847 13.2162 10.1892 13.0849 10.1951 12.911Z" fill="#6A5751"/>
</svg>
