<svg width="166" height="38" viewBox="0 0 166 38" fill="none" xmlns="http://www.w3.org/2000/svg">
<path d="M0 19C0 8.50659 8.50659 0 19 0H147C157.493 0 166 8.50659 166 19C166 29.4934 157.493 38 147 38H19C8.50659 38 0 29.4934 0 19Z" fill="url(#paint0_linear_95_93)"/>
<path d="M38.7088 18.1614C39.3159 18.5557 39.3159 19.4443 38.7088 19.8386L29.5447 25.7909C28.8794 26.223 28 25.7456 28 24.9523L28 13.0477C28 12.2544 28.8794 11.777 29.5447 12.2091L38.7088 18.1614Z" fill="white"/>
<path d="M50.392 21.684C51.218 22.566 52.464 23.168 54.186 23.168C56.706 23.168 57.798 21.838 57.798 20.284C57.798 18.254 55.964 17.778 54.424 17.386C53.318 17.106 52.366 16.868 52.366 16.14C52.366 15.44 52.982 14.978 53.948 14.978C54.928 14.978 55.922 15.314 56.65 16.042L57.588 14.824C56.72 13.984 55.544 13.522 54.088 13.522C52.044 13.522 50.686 14.712 50.686 16.252C50.686 18.226 52.478 18.674 54.004 19.052C55.138 19.346 56.132 19.598 56.132 20.438C56.132 21.054 55.6 21.712 54.256 21.712C52.954 21.712 51.946 21.11 51.302 20.424L50.392 21.684ZM61.0894 23.168C61.7754 23.168 62.2094 22.986 62.4754 22.734L62.1254 21.628C62.0134 21.754 61.7474 21.866 61.4674 21.866C61.0474 21.866 60.8234 21.53 60.8234 21.068V17.526H62.1954V16.238H60.8234V14.39H59.3534V16.238H58.2334V17.526H59.3534V21.432C59.3534 22.552 59.9554 23.168 61.0894 23.168ZM69.1301 23V18.52C69.1301 16.7 67.8141 16.07 66.3161 16.07C65.2381 16.07 64.2581 16.42 63.4741 17.162L64.0761 18.184C64.6641 17.61 65.3221 17.33 66.0781 17.33C67.0161 17.33 67.6601 17.806 67.6601 18.59V19.598C67.1701 19.024 66.3861 18.73 65.4761 18.73C64.3701 18.73 63.1241 19.374 63.1241 20.928C63.1241 22.426 64.3701 23.168 65.4761 23.168C66.3721 23.168 67.1561 22.846 67.6601 22.272V23H69.1301ZM67.6601 21.46C67.3241 21.922 66.6941 22.16 66.0501 22.16C65.2241 22.16 64.6081 21.684 64.6081 20.956C64.6081 20.214 65.2241 19.738 66.0501 19.738C66.6941 19.738 67.3241 19.976 67.6601 20.438V21.46ZM72.506 23V18.394C72.8 17.918 73.626 17.498 74.242 17.498C74.424 17.498 74.578 17.512 74.704 17.54V16.084C73.822 16.084 73.01 16.588 72.506 17.232V16.238H71.036V23H72.506ZM77.9195 23.168C78.6055 23.168 79.0395 22.986 79.3055 22.734L78.9555 21.628C78.8435 21.754 78.5775 21.866 78.2975 21.866C77.8775 21.866 77.6535 21.53 77.6535 21.068V17.526H79.0255V16.238H77.6535V14.39H76.1835V16.238H75.0635V17.526H76.1835V21.432C76.1835 22.552 76.7855 23.168 77.9195 23.168ZM92.8879 23L95.5479 13.662H93.7139L91.9079 20.858L89.9759 13.662H88.6739L86.7419 20.858L84.9219 13.662H83.0879L85.7619 23H87.5119L89.3179 16.112L91.1379 23H92.8879ZM101.642 23V18.52C101.642 16.7 100.326 16.07 98.8278 16.07C97.7498 16.07 96.7698 16.42 95.9858 17.162L96.5878 18.184C97.1758 17.61 97.8338 17.33 98.5898 17.33C99.5278 17.33 100.172 17.806 100.172 18.59V19.598C99.6818 19.024 98.8978 18.73 97.9878 18.73C96.8818 18.73 95.6358 19.374 95.6358 20.928C95.6358 22.426 96.8818 23.168 97.9878 23.168C98.8838 23.168 99.6678 22.846 100.172 22.272V23H101.642ZM100.172 21.46C99.8358 21.922 99.2058 22.16 98.5618 22.16C97.7358 22.16 97.1198 21.684 97.1198 20.956C97.1198 20.214 97.7358 19.738 98.5618 19.738C99.2058 19.738 99.8358 19.976 100.172 20.438V21.46ZM105.578 23.168C106.264 23.168 106.698 22.986 106.964 22.734L106.614 21.628C106.502 21.754 106.236 21.866 105.956 21.866C105.536 21.866 105.312 21.53 105.312 21.068V17.526H106.684V16.238H105.312V14.39H103.842V16.238H102.722V17.526H103.842V21.432C103.842 22.552 104.444 23.168 105.578 23.168ZM107.598 19.612C107.598 21.67 109.04 23.168 111.098 23.168C112.414 23.168 113.212 22.608 113.688 21.964L112.722 21.068C112.344 21.586 111.826 21.866 111.168 21.866C109.936 21.866 109.124 20.928 109.124 19.612C109.124 18.296 109.936 17.372 111.168 17.372C111.826 17.372 112.344 17.638 112.722 18.17L113.688 17.274C113.212 16.63 112.414 16.07 111.098 16.07C109.04 16.07 107.598 17.568 107.598 19.612ZM121.025 23V18.212C121.025 16.826 120.297 16.07 118.841 16.07C117.777 16.07 116.895 16.63 116.447 17.162V13.662H114.977V23H116.447V18.282C116.797 17.82 117.441 17.372 118.183 17.372C119.009 17.372 119.555 17.694 119.555 18.744V23H121.025ZM123.662 15.118C124.166 15.118 124.572 14.712 124.572 14.208C124.572 13.704 124.166 13.298 123.662 13.298C123.172 13.298 122.752 13.704 122.752 14.208C122.752 14.712 123.172 15.118 123.662 15.118ZM124.404 23V16.238H122.934V23H124.404ZM132.345 23V18.24C132.345 16.854 131.617 16.07 130.161 16.07C129.097 16.07 128.229 16.63 127.781 17.162V16.238H126.311V23H127.781V18.282C128.117 17.82 128.761 17.372 129.517 17.372C130.343 17.372 130.875 17.722 130.875 18.772V23H132.345ZM134.171 24.736C134.997 25.492 135.851 25.744 136.999 25.744C138.665 25.744 140.471 25.086 140.471 22.65V16.238H139.001V17.176C138.455 16.462 137.685 16.07 136.831 16.07C135.095 16.07 133.835 17.358 133.835 19.542C133.835 21.768 135.109 23.014 136.831 23.014C137.713 23.014 138.483 22.566 139.001 21.894V22.706C139.001 24.092 137.965 24.54 136.999 24.54C136.103 24.54 135.403 24.302 134.857 23.672L134.171 24.736ZM139.001 20.802C138.679 21.306 137.951 21.712 137.265 21.712C136.103 21.712 135.361 20.844 135.361 19.542C135.361 18.24 136.103 17.372 137.265 17.372C137.951 17.372 138.679 17.778 139.001 18.282V20.802Z" fill="white"/>
<defs>
<linearGradient id="paint0_linear_95_93" x1="83" y1="0" x2="83" y2="38" gradientUnits="userSpaceOnUse">
<stop stop-color="#FE6C2D"/>
<stop offset="1" stop-color="#B71B0A"/>
</linearGradient>
</defs>
</svg>
