<svg width="177" height="50" viewBox="0 0 177 50" fill="none" xmlns="http://www.w3.org/2000/svg">
<path d="M6.94971 36.0221C6.94971 38.8729 12.7355 39.8835 15.1824 38.2595C16.8316 37.1607 17.4411 31.5386 16.0518 30.1088C15.3572 29.3939 14.4205 29.4866 13.5287 29.4822C10.8442 29.4777 8.15526 29.5219 5.47078 29.4777C2.52188 29.4292 1.22223 28.476 0.666512 25.7047C0.0839035 22.7965 -0.0236693 19.8355 1.24014 17.0641C1.77794 15.8771 1.99307 14.9768 1.05641 13.9133C0.549988 13.3396 0.393133 12.5188 0.35728 11.7068C0.307983 10.5065 0.733726 9.84013 2.0558 9.90633C2.84904 9.94604 3.65125 9.96811 4.44002 9.90192C6.18336 9.75629 7.0976 10.3476 6.86455 12.2143C6.7794 12.8983 6.9273 13.5779 7.4875 14.0986C8.21353 14.7782 9.10984 14.84 10.0017 14.6767C11.0997 14.4781 10.8666 13.5294 10.9159 12.7924C11.279 7.37771 11.4089 7.25856 17.0558 7.29386C18.7453 7.30269 20.4349 7.3071 22.1289 7.31151C24.2129 7.31593 23.3569 8.88253 23.5048 9.87544C23.6616 10.9522 23.5092 11.8215 22.0214 11.7553C20.9368 11.7068 19.8254 11.7421 18.7632 11.9363C17.9386 12.0907 17.3874 12.7615 17.3963 13.6397C17.4053 14.5134 18.1537 14.637 18.8349 14.84C22.0707 15.7976 23.1149 17.2053 23.1866 20.4709C23.209 21.5035 23.0387 22.2096 21.7794 22.1611C20.5872 22.117 19.3952 22.1478 18.203 22.0993C17.477 22.0684 16.8048 21.8698 16.6883 21.0005C16.4283 19.0588 15.0838 18.7764 13.4301 18.8646C12.4397 18.9176 11.4403 18.8293 10.4454 18.8425C7.25448 18.8911 6.01754 20.6254 6.99005 23.6394C7.43821 25.0295 8.4914 25.2854 9.79554 25.2678C12.5786 25.2325 15.3662 25.206 18.1493 25.2546C21.3312 25.3075 22.6533 26.4814 23.0342 29.5969C23.3569 32.227 23.33 34.8704 23.1149 37.5137C22.9087 40.0468 21.5732 41.7104 19.1307 42.4474C14.2368 43.9257 9.29807 43.8904 4.45345 42.3547C1.21773 41.3309 -1.00514 35.7971 0.460349 32.9905C0.729245 32.4785 1.15053 32.3462 1.67487 32.3462C2.27093 32.3462 2.86698 32.3373 3.46752 32.3373C6.8332 32.3285 6.83318 32.3285 6.94971 36.0221Z" fill="#D17E5B"/>
<path fill-rule="evenodd" clip-rule="evenodd" d="M158.75 25.8726V25.8726V25.8726C158.736 26.4475 158.722 27.0429 158.701 27.6683C158.7 28.6085 158.695 29.5266 158.69 30.429C158.678 32.8134 158.665 35.0873 158.724 37.3636C158.726 37.4475 158.728 37.5317 158.73 37.6161C158.76 38.8891 158.791 40.2029 159.669 41.2955C161.202 43.1975 165.348 43.9477 168.597 42.9018C171.192 42.0678 171.9 40.9028 171.9 37.4165C171.901 35.459 171.907 33.5011 171.913 31.5431V31.5425V31.5419V31.5419V31.5418C171.929 26.0583 171.945 20.5737 171.859 15.0914C171.851 14.549 171.881 13.9924 171.911 13.433C172.039 11.0342 172.171 8.58443 169.296 6.98485C168.462 6.52149 168.758 5.0917 169.628 4.42975C170.313 3.90903 170.775 4.49154 171.241 5.127C171.9 6.02724 175.687 6.60093 176.372 5.88162C177.218 4.99998 177.026 3.89253 176.839 2.81291C176.809 2.63883 176.779 2.46546 176.753 2.29389C176.529 0.793488 175.575 0.0874173 174.105 0.0256361C173.266 -0.00852984 172.424 -0.00115941 171.584 0.00620309C171.23 0.00930112 170.877 0.0123978 170.524 0.0123978C164.384 0.0168107 164.384 0.0168134 163.483 5.96546C163.219 7.73506 161.121 8.68383 159.401 8.03513C156.447 6.92155 153.395 7.23368 150.363 7.54384C149.959 7.5852 149.555 7.62653 149.151 7.66444C148.658 7.70857 148.143 8.26902 147.762 8.70149C145.57 11.1904 146.26 16.5609 149.111 18.2511C150.531 19.094 150.899 20.1487 150.872 21.6402C150.83 23.8231 150.838 26.008 150.847 28.1921V28.1925V28.1929C150.851 29.2407 150.856 30.2883 150.854 31.3355C150.854 31.7009 150.855 32.0661 150.856 32.4312V32.4313C150.861 33.8297 150.865 35.226 150.805 36.6222C150.751 37.8313 150.092 38.6477 148.81 38.811C147.614 38.9611 147.04 38.1579 146.516 37.2797C146.086 36.5595 146.102 35.794 146.117 35.0286C146.124 34.7248 146.13 34.421 146.108 34.1201C146.099 33.9887 146.105 33.8438 146.111 33.6964C146.131 33.215 146.152 32.7076 145.638 32.5623C144.1 32.121 142.438 32.1166 140.936 32.5093C140.088 32.7296 140.164 33.4524 140.24 34.1735C140.273 34.4927 140.306 34.8116 140.26 35.0865C140.218 35.3383 140.203 35.5989 140.189 35.8585C140.165 36.2905 140.142 36.7201 139.991 37.1032C139.574 38.1535 138.825 38.9743 137.517 38.7934C136.392 38.6345 135.765 37.9064 135.639 36.8164C135.518 35.7484 135.411 34.6717 135.402 33.5993C135.37 30.1177 135.388 30.1175 138.847 30.0734L138.848 30.0734C141.667 30.0381 143.047 29.2438 143.594 27.002C144.298 24.1247 144.472 21.1857 143.724 18.2776C143.096 15.8372 141.837 14.8311 139.278 14.7516C138.351 14.7225 137.423 14.7521 136.495 14.7817H136.495H136.495C135.736 14.806 134.977 14.8302 134.218 14.8222C130.911 14.7869 129.217 15.9299 129.015 19.1381C128.621 25.3868 128.643 31.6576 129.087 37.9108C129.221 39.7863 130.113 41.3705 131.816 42.2134C134.931 43.7535 138.355 43.8991 141.237 42.1384C143.016 41.0528 143.724 41.1278 145.337 42.2487C150.191 45.6246 156.465 42.4473 156.833 36.609C157.002 33.9014 156.98 31.191 156.958 28.4842C156.941 26.4043 156.924 24.3264 156.994 22.2536C157.115 18.8336 157.196 16.0888 153.458 14.5663C152.302 14.0941 152.145 12.2583 153.068 11.9626C154.457 11.5214 156.008 11.2831 157.29 12.3025C159.481 14.0412 161.453 14.05 163.788 12.1965C164.958 11.2654 166.11 11.6493 166.325 13.088C166.395 13.5692 166.39 14.0642 166.385 14.558C166.383 14.7525 166.38 14.9468 166.383 15.14C166.423 18.6968 166.423 18.6968 162.833 18.8204C159.871 18.9219 159.064 19.6279 158.881 22.4081C158.808 23.5293 158.78 24.6545 158.75 25.8724V25.8724L158.75 25.8726ZM164.112 30.3871V30.3879V30.3887C164.116 31.3867 164.121 32.4083 164.124 33.4669C164.128 33.8605 164.128 34.2269 164.128 34.5744V34.5749V34.5753C164.128 35.3379 164.127 36.0098 164.173 36.6796C164.227 37.3636 164.393 38.1226 165.307 38.1314C166.298 38.1403 166.311 37.3239 166.316 36.6575C166.352 33.268 166.359 29.882 166.367 26.4933L166.369 25.2236C166.369 24.4028 166.302 23.582 165.182 23.5864C164.083 23.5905 164.09 24.3676 164.096 25.1006L164.096 25.1013C164.097 25.1572 164.097 25.2127 164.097 25.2677C164.097 26.9496 164.105 28.6314 164.112 30.3864V30.3867V30.3871ZM138.337 20.7709C138.306 22.0992 138.274 23.1671 138.234 24.2395C138.202 25.0603 137.674 25.4707 136.925 25.5678C136.092 25.6781 135.617 25.1441 135.428 24.4425C135.038 22.9994 135.177 21.5343 135.558 20.1134C135.738 19.447 136.244 18.8998 137.051 18.8998C138.135 18.9086 138.265 19.6986 138.337 20.7709ZM130.765 10.8457C130.773 11.1838 130.781 11.5491 130.803 11.9627C131.651 13.814 133.046 13.4515 134.243 13.1402C134.413 13.0961 134.579 13.053 134.738 13.0174C135.688 12.8007 135.585 12.0078 135.484 11.2381C135.449 10.973 135.415 10.7106 135.424 10.4755C135.427 10.3611 135.423 10.2453 135.419 10.1295C135.413 9.95053 135.407 9.77149 135.428 9.59732C135.644 7.94246 135.155 7.05105 133.219 7.01574C131.184 6.97603 130.548 7.8542 130.714 9.67234C130.746 10.0486 130.755 10.4263 130.765 10.8457Z" fill="#D17E5B"/>
<path fill-rule="evenodd" clip-rule="evenodd" d="M102.453 36.4189V36.419C102.463 37.0404 102.471 37.546 102.771 38.0078C102.986 38.3431 103.223 38.63 103.685 38.6344C104.295 38.6432 104.595 38.2328 104.743 37.7783C104.891 37.3237 104.9 36.8118 104.9 36.3264C104.922 31.2339 104.94 26.1413 104.922 21.0488C104.922 20.9419 104.929 20.8261 104.936 20.7066V20.7066C104.971 20.1255 105.01 19.4588 104.286 19.3233C103.219 19.1248 102.977 20.0559 102.972 20.8458C102.968 22.5845 102 22.9949 100.463 22.8625C99.5709 22.7831 98.6701 22.7699 97.7783 22.8096C96.5817 22.8669 95.9139 22.5007 95.8915 21.1856C95.8601 19.4248 94.6949 18.8732 93.0815 18.8953C92.4567 18.9029 91.8318 18.8931 91.2069 18.8834C90.7383 18.8761 90.2696 18.8688 89.801 18.8688C87.5467 18.8732 86.7938 17.9333 87.3451 15.8327C87.484 15.2987 87.6991 14.9413 88.3176 14.9678C89.4382 15.0158 90.57 14.9213 91.7018 14.8268C94.2093 14.6174 96.7165 14.408 99.1003 15.7489C99.6471 16.0578 99.9877 15.9739 100.378 15.5988C101.068 14.9369 101.919 14.7692 102.847 14.7736C102.944 14.774 103.043 14.7764 103.142 14.7788C104.035 14.8002 104.937 14.8218 104.913 13.4232C104.891 12.0155 104.563 10.824 102.883 10.7093C101.493 10.6122 100.086 10.5681 98.706 10.696C97.0657 10.8461 96.9267 9.99437 97.0029 8.74992C97.011 8.61567 97.0155 8.48191 97.02 8.35042C97.0554 7.30632 97.086 6.40528 98.8135 6.53462C100.354 6.65109 101.905 6.63215 103.457 6.61321C104.198 6.60416 104.939 6.59511 105.679 6.60081C109.856 6.63612 111.34 8.12769 111.461 12.2979C111.467 12.5162 111.444 12.7522 111.422 12.9896C111.33 13.9667 111.235 14.9684 113.11 14.8618C114.472 14.7824 114.979 14.4514 115.05 13.0128C115.337 7.25834 115.485 7.17891 121.307 7.20097C121.741 7.20226 122.177 7.19495 122.612 7.18763C123.673 7.16981 124.735 7.15197 125.784 7.25835C128.119 7.49223 129.763 10.7004 128.665 12.6907C128.114 13.6924 124.368 13.7807 123.198 12.7216C123.059 12.5959 122.935 12.4418 122.813 12.2897C122.436 11.8218 122.074 11.3718 121.347 11.8213C120.791 12.1647 120.855 12.8241 120.913 13.4274C120.923 13.5297 120.933 13.6304 120.939 13.7277C121.006 14.6682 121.643 14.7195 122.301 14.7726C122.436 14.7835 122.573 14.7945 122.705 14.8133C125.766 15.2634 126.904 16.402 126.94 19.416C127.016 25.6868 127.003 31.9532 126.958 38.224C126.94 40.885 125.69 42.3324 123.055 43.0473C121.087 43.5813 119.129 43.5725 117.17 42.9856C114.696 42.2486 113.477 40.9115 113.383 38.3387C113.249 34.7201 113.222 31.0927 113.294 27.4696C113.356 24.3453 114.266 23.5774 117.484 23.5156C117.65 23.5127 117.816 23.5117 117.981 23.5107H117.981C118.313 23.5088 118.645 23.5068 118.976 23.4892C119.133 23.4806 119.295 23.4798 119.457 23.479C120.384 23.4743 121.315 23.4696 121.289 22.0196C121.266 20.559 121.02 19.1203 119.214 18.9791C117.33 18.8309 115.423 18.8609 113.525 18.8908L113.524 18.8908C113.332 18.8938 113.14 18.8969 112.948 18.8997C111.419 18.9204 111.422 20.0466 111.425 21.0527C111.425 21.1197 111.425 21.1862 111.425 21.2518C111.412 23.5462 111.423 25.8392 111.433 28.1324V28.1327C111.441 29.853 111.449 31.5735 111.447 33.2947L111.447 33.6173V33.6173C111.448 34.9804 111.449 36.3491 111.304 37.6988C110.887 41.6705 108.019 43.8108 104.07 43.0341C102.457 42.7164 101.686 42.7252 102.215 44.7154C102.475 45.6885 102.271 46.8284 102.085 47.8656L102.076 47.9148C101.74 49.7682 100.301 50.1036 98.6746 49.9757C97.1015 49.8521 96.4158 48.9121 96.4158 47.4117C96.4158 47.2176 96.4114 47.019 96.4024 46.8248C96.2769 43.5813 96.2769 43.5813 92.965 43.065C89.2497 42.4869 87.8694 40.8806 87.3048 37.0546C86.9731 34.804 86.9014 32.5666 87.0493 30.3248C87.3048 26.4988 88.8823 25.1308 92.7409 25.1308C93.169 25.1308 93.5974 25.1285 94.0259 25.1263H94.0264C95.1904 25.1202 96.3556 25.1141 97.5183 25.1528C100.606 25.2499 102.081 26.512 102.372 29.5746C102.498 30.8764 102.475 32.194 102.45 33.5986V33.5987C102.438 34.2844 102.426 34.9909 102.43 35.7263C102.446 35.9732 102.45 36.203 102.453 36.4189ZM93.5387 35.1702C93.5421 34.6051 93.5441 34.0768 93.5461 33.5718V33.5717C93.5495 32.7123 93.5527 31.9201 93.5611 31.128C93.5701 30.3027 93.727 29.5261 94.7443 29.429C95.872 29.32 95.8703 30.1051 95.8687 30.8107C95.8686 30.8762 95.8684 30.941 95.8692 31.0044C95.8916 33.0344 95.8871 35.0687 95.8557 37.0987L95.8552 37.1365C95.8466 37.7983 95.8355 38.6581 95.0132 38.7447C94.0317 38.8506 93.7852 37.9371 93.6373 37.1737C93.5639 36.785 93.5594 36.388 93.554 35.9055C93.5514 35.6814 93.5487 35.4389 93.5387 35.1702ZM119.218 36.8648C119.223 37.4076 119.559 37.743 120.249 37.8489C121.036 35.8308 120.956 33.8294 120.878 31.8474C120.842 30.9385 120.806 30.0337 120.854 29.1333C120.885 28.5817 120.585 28.1007 120.061 28.083C119.308 28.0566 119.182 28.67 119.187 29.301C119.193 30.3807 119.196 31.4612 119.199 32.5418C119.204 33.9831 119.208 35.4247 119.218 36.8648Z" fill="#D17E5B"/>
<path fill-rule="evenodd" clip-rule="evenodd" d="M74.9849 19.8044C74.976 17.9554 74.4023 16.3314 72.4304 15.237C70.1895 14.6244 68.0078 14.7011 65.8562 14.7768C64.5051 14.8243 63.1659 14.8714 61.8314 14.7472C61.6204 14.7272 61.3797 14.7316 61.1333 14.7362C60.2912 14.7517 59.3818 14.7685 59.3575 13.816C59.3298 12.7043 60.2444 12.8176 61.06 12.9186C61.2966 12.9479 61.5249 12.9761 61.7194 12.9732C64.7041 12.9202 67.6889 12.9423 70.6736 12.9996C72.0853 13.0261 72.6052 12.4436 72.6007 11.0712C72.6007 9.84809 71.9068 9.88009 71.2109 9.91218C71.0531 9.91946 70.8953 9.92674 70.7453 9.9194C70.139 9.8924 69.5307 9.90007 68.9216 9.90775C68.6348 9.91137 68.3478 9.91499 68.0609 9.91499C67.487 9.91499 66.9131 9.9157 66.3392 9.9164C64.4258 9.91875 62.5124 9.9211 60.599 9.89733C59.9984 9.88851 59.3755 9.74288 59.3665 8.95296C59.3531 8.13657 59.9805 8.06596 60.59 8.0439C61.0677 8.02569 61.5476 8.03044 62.0266 8.03518C62.2442 8.03734 62.4615 8.03949 62.6784 8.03949C63.7526 8.03816 64.8267 8.03803 65.9008 8.0379C68.4075 8.03759 70.9142 8.03728 73.4208 8.02183C75.0793 8.01154 75.034 7.041 74.9885 6.06829C74.9755 5.78985 74.9625 5.51124 74.9894 5.25492C75.1328 3.90897 74.4427 3.64861 73.2102 3.66185C70.1512 3.69283 67.091 3.68906 64.0308 3.6853C61.424 3.68209 58.8173 3.67888 56.2115 3.69715C52.9489 3.71922 52.2945 4.5003 52.2721 7.77471C52.2678 8.41093 52.5319 9.0917 52.7713 9.70887C53.0317 10.3802 53.2629 10.9763 53.0878 11.358C52.2848 13.1082 52.3739 14.8584 52.4624 16.5992C52.5059 17.4525 52.5492 18.3036 52.4873 19.1513C52.0615 25.0117 52.178 30.8897 52.3349 36.7589C52.4111 39.7068 54.002 41.6882 56.9868 42.4869C61.6253 43.727 66.2682 43.5019 70.8305 42.2707C73.4657 41.5602 74.9804 39.6627 74.9849 36.8384C74.9864 35.8911 74.9882 34.944 74.9899 33.997C74.9986 29.2658 75.0073 24.5366 74.9849 19.8044ZM68.5492 22.9464C68.6119 19.0056 68.464 18.8291 64.1707 18.8424C63.8831 18.8476 63.6196 18.8558 63.3734 18.8635C62.7833 18.882 62.2927 18.8974 61.8089 18.86C59.7428 18.71 58.9003 19.7603 58.9003 21.6578C58.9003 22.8982 58.8948 24.139 58.8894 25.3799C58.8751 28.6376 58.8607 31.8963 58.9451 35.1526C59.0168 37.9945 60.563 39.0095 64.1303 38.8992C67.2854 38.8021 68.3968 37.8401 68.4461 34.9717C68.4857 32.8881 68.4939 30.8033 68.502 28.7186C68.5094 26.7941 68.5169 24.8698 68.5492 22.9464Z" fill="#D17E5B"/>
<path fill-rule="evenodd" clip-rule="evenodd" d="M25.3366 29.0183C25.3378 30.1104 25.3391 31.219 25.3378 32.3503C25.3408 32.7771 25.3479 33.1719 25.3546 33.545C25.3678 34.2791 25.3795 34.9296 25.3557 35.5762C25.2526 38.7315 26.8257 40.8585 29.7253 41.8779C35.2377 43.8196 40.8173 43.9255 46.3655 41.9C49.1082 40.8982 50.4706 38.9168 50.4796 36.0572C50.4826 34.8602 50.4885 33.6631 50.4943 32.4657C50.5141 28.3748 50.5339 24.2824 50.4438 20.1927C50.3541 16.0622 48.6108 14.5706 44.4339 14.7692C44.2401 14.7784 44.0299 14.7685 43.8154 14.7585C43.0035 14.7205 42.1319 14.6796 41.866 15.6606C41.5433 16.8432 41.3147 18.1848 42.9102 18.9394C44.0306 19.4734 44.3219 20.5722 44.2278 21.6931C43.9363 25.1401 43.9833 28.5926 44.0302 32.044C44.0432 32.998 44.0561 33.9518 44.0619 34.9054C44.0709 36.1543 43.8289 37.3855 42.7219 37.9989C39.9478 39.5346 36.9631 39.3934 34.0769 38.374C31.7903 37.5642 31.8486 35.6441 31.9052 33.7785C31.9118 33.5599 31.9185 33.3422 31.9213 33.127L31.9215 33.1145C31.9661 30.1527 31.9661 30.1526 35.1525 30.0777C38.5585 29.9982 39.9433 28.9568 40.2839 25.6559C40.526 23.3435 40.4498 20.9694 40.2526 18.6437C40.0599 16.3887 38.4062 14.9325 36.0937 14.7471C35.0437 14.6659 33.9848 14.6864 32.9265 14.7068C32.4895 14.7153 32.0526 14.7237 31.6165 14.725C26.996 14.7427 25.4364 16.2475 25.3692 20.8943C25.3306 23.5652 25.3335 26.2384 25.3366 29.0183ZM32.9925 25.7971C33.9695 26.0222 34.4177 25.4132 34.7314 24.3761C34.7339 24.1667 34.7368 23.9618 34.7396 23.7609C34.7568 22.5317 34.7719 21.4527 34.691 20.3869C34.6328 19.6411 34.1219 19.1424 33.3017 19.213C32.5443 19.2792 32.0155 19.6852 31.9931 20.5016C31.9572 21.7549 31.9393 23.0037 31.9483 24.257C31.9528 24.9763 32.1903 25.6118 32.9925 25.7971Z" fill="#D17E5B"/>
</svg>
