<svg width="35" height="29" viewBox="0 0 35 29" fill="none" xmlns="http://www.w3.org/2000/svg">
<path d="M0 5.5C0 2.73858 2.23858 0.5 5 0.5H30C32.7614 0.5 35 2.73858 35 5.5V23.5C35 26.2614 32.7614 28.5 30 28.5H5C2.23858 28.5 0 26.2614 0 23.5V5.5Z" fill="#1A1D1E"/>
<path d="M14.49 17.5L17.08 11.64V10.83H12.27V11.86H15.73L13.21 17.5H14.49ZM22.0523 14.47V13.79H20.2023V11.79H19.4623V13.79H17.6123V14.47H19.4623V16.54H20.2023V14.47H22.0523Z" fill="white"/>
<path d="M5 2.5H30V-1.5H5V2.5ZM33 5.5V23.5H37V5.5H33ZM30 26.5H5V30.5H30V26.5ZM2 23.5V5.5H-2V23.5H2ZM5 26.5C3.34315 26.5 2 25.1569 2 23.5H-2C-2 27.366 1.13401 30.5 5 30.5V26.5ZM33 23.5C33 25.1569 31.6569 26.5 30 26.5V30.5C33.866 30.5 37 27.366 37 23.5H33ZM30 2.5C31.6569 2.5 33 3.84315 33 5.5H37C37 1.63401 33.866 -1.5 30 -1.5V2.5ZM5 -1.5C1.13401 -1.5 -2 1.63401 -2 5.5H2C2 3.84315 3.34315 2.5 5 2.5V-1.5Z" fill="#35393F"/>
</svg>
