<svg width="29" height="25" viewBox="0 0 29 25" fill="none" xmlns="http://www.w3.org/2000/svg">
<path d="M5.404 13.168C7.364 13.168 8.512 12.188 9.226 11.068L7.826 10.354C7.378 11.138 6.482 11.712 5.404 11.712C3.626 11.712 2.254 10.298 2.254 8.338C2.254 6.378 3.626 4.964 5.404 4.964C6.482 4.964 7.378 5.552 7.826 6.322L9.226 5.608C8.526 4.488 7.364 3.508 5.404 3.508C2.716 3.508 0.574 5.468 0.574 8.338C0.574 11.208 2.716 13.168 5.404 13.168ZM16.095 13V8.52C16.095 6.7 14.779 6.07 13.281 6.07C12.203 6.07 11.223 6.42 10.439 7.162L11.041 8.184C11.629 7.61 12.287 7.33 13.043 7.33C13.981 7.33 14.625 7.806 14.625 8.59V9.598C14.135 9.024 13.351 8.73 12.441 8.73C11.335 8.73 10.089 9.374 10.089 10.928C10.089 12.426 11.335 13.168 12.441 13.168C13.337 13.168 14.121 12.846 14.625 12.272V13H16.095ZM14.625 11.46C14.289 11.922 13.659 12.16 13.015 12.16C12.189 12.16 11.573 11.684 11.573 10.956C11.573 10.214 12.189 9.738 13.015 9.738C13.659 9.738 14.289 9.976 14.625 10.438V11.46ZM17.4128 12.118C18.1128 12.804 19.1628 13.168 20.3108 13.168C22.1308 13.168 23.1248 12.258 23.1248 11.068C23.1248 9.472 21.6828 9.136 20.5068 8.884C19.7088 8.702 19.0368 8.52 19.0368 8.002C19.0368 7.526 19.5268 7.246 20.2968 7.246C21.1368 7.246 21.8928 7.596 22.2988 8.058L22.9148 7.022C22.2988 6.476 21.4308 6.07 20.2828 6.07C18.5748 6.07 17.6228 7.022 17.6228 8.128C17.6228 9.64 19.0088 9.948 20.1708 10.2C20.9968 10.382 21.7108 10.592 21.7108 11.18C21.7108 11.684 21.2628 12.006 20.3808 12.006C19.4988 12.006 18.5608 11.544 18.0848 11.054L17.4128 12.118ZM26.6343 13.168C27.3203 13.168 27.7543 12.986 28.0203 12.734L27.6703 11.628C27.5583 11.754 27.2923 11.866 27.0123 11.866C26.5923 11.866 26.3683 11.53 26.3683 11.068V7.526H27.7403V6.238H26.3683V4.39H24.8983V6.238H23.7783V7.526H24.8983V11.432C24.8983 12.552 25.5003 13.168 26.6343 13.168Z" fill="white"/>
<line x1="8.74228e-08" y1="24" x2="29" y2="24" stroke="#FF6D2E" stroke-width="2"/>
</svg>
