<svg width="44" height="25" viewBox="0 0 44 25" fill="none" xmlns="http://www.w3.org/2000/svg">
<path d="M4.466 13C7.378 13 9.352 11.082 9.352 8.338C9.352 5.594 7.378 3.662 4.466 3.662H0.994V13H4.466ZM2.632 5.104H4.466C6.552 5.104 7.672 6.532 7.672 8.338C7.672 10.102 6.496 11.558 4.466 11.558H2.632V5.104ZM10.4715 9.612C10.4715 11.754 11.9835 13.168 14.0135 13.168C15.0915 13.168 16.0855 12.832 16.7575 12.188L16.0855 11.222C15.6095 11.698 14.8255 11.964 14.1675 11.964C12.8935 11.964 12.1235 11.124 12.0115 10.102H17.2335V9.752C17.2335 7.624 15.9315 6.07 13.9015 6.07C11.8995 6.07 10.4715 7.652 10.4715 9.612ZM13.9015 7.274C15.2315 7.274 15.7775 8.268 15.8055 9.066H11.9975C12.0675 8.24 12.6415 7.274 13.9015 7.274ZM20.7144 13.168C21.4004 13.168 21.8344 12.986 22.1004 12.734L21.7504 11.628C21.6384 11.754 21.3724 11.866 21.0924 11.866C20.6724 11.866 20.4484 11.53 20.4484 11.068V7.526H21.8204V6.238H20.4484V4.39H18.9784V6.238H17.8584V7.526H18.9784V11.432C18.9784 12.552 19.5804 13.168 20.7144 13.168ZM28.7551 13V8.52C28.7551 6.7 27.4391 6.07 25.9411 6.07C24.8631 6.07 23.8831 6.42 23.0991 7.162L23.7011 8.184C24.2891 7.61 24.9471 7.33 25.7031 7.33C26.6411 7.33 27.2851 7.806 27.2851 8.59V9.598C26.7951 9.024 26.0111 8.73 25.1011 8.73C23.9951 8.73 22.7491 9.374 22.7491 10.928C22.7491 12.426 23.9951 13.168 25.1011 13.168C25.9971 13.168 26.7811 12.846 27.2851 12.272V13H28.7551ZM27.2851 11.46C26.9491 11.922 26.3191 12.16 25.6751 12.16C24.8491 12.16 24.2331 11.684 24.2331 10.956C24.2331 10.214 24.8491 9.738 25.6751 9.738C26.3191 9.738 26.9491 9.976 27.2851 10.438V11.46ZM31.389 5.118C31.893 5.118 32.299 4.712 32.299 4.208C32.299 3.704 31.893 3.298 31.389 3.298C30.899 3.298 30.479 3.704 30.479 4.208C30.479 4.712 30.899 5.118 31.389 5.118ZM32.131 13V6.238H30.661V13H32.131ZM35.5079 13V3.662H34.0379V13H35.5079ZM36.8269 12.118C37.5269 12.804 38.5769 13.168 39.7249 13.168C41.5449 13.168 42.5389 12.258 42.5389 11.068C42.5389 9.472 41.0969 9.136 39.9209 8.884C39.1229 8.702 38.4509 8.52 38.4509 8.002C38.4509 7.526 38.9409 7.246 39.7109 7.246C40.5509 7.246 41.3069 7.596 41.7129 8.058L42.3289 7.022C41.7129 6.476 40.8449 6.07 39.6969 6.07C37.9889 6.07 37.0369 7.022 37.0369 8.128C37.0369 9.64 38.4229 9.948 39.5849 10.2C40.4109 10.382 41.1249 10.592 41.1249 11.18C41.1249 11.684 40.6769 12.006 39.7949 12.006C38.9129 12.006 37.9749 11.544 37.4989 11.054L36.8269 12.118Z" fill="#B7B8B7"/>
</svg>
