<svg width="376" height="19" viewBox="0 0 376 19" fill="none" xmlns="http://www.w3.org/2000/svg">
<path d="M6.176 14.192C8.416 14.192 9.728 13.072 10.544 11.792L8.944 10.976C8.432 11.872 7.408 12.528 6.176 12.528C4.144 12.528 2.576 10.912 2.576 8.672C2.576 6.432 4.144 4.816 6.176 4.816C7.408 4.816 8.432 5.488 8.944 6.368L10.544 5.552C9.744 4.272 8.416 3.152 6.176 3.152C3.104 3.152 0.656 5.392 0.656 8.672C0.656 11.952 3.104 14.192 6.176 14.192ZM15.4823 14.192C17.9623 14.192 19.4663 12.352 19.4663 10.128C19.4663 7.92 17.9623 6.08 15.4823 6.08C13.0343 6.08 11.5143 7.92 11.5143 10.128C11.5143 12.352 13.0343 14.192 15.4823 14.192ZM15.4823 12.704C14.0583 12.704 13.2582 11.504 13.2582 10.128C13.2582 8.768 14.0583 7.568 15.4823 7.568C16.9223 7.568 17.7223 8.768 17.7223 10.128C17.7223 11.504 16.9223 12.704 15.4823 12.704ZM22.8461 14V3.328H21.1661V14H22.8461ZM28.5135 14.192C30.9935 14.192 32.4975 12.352 32.4975 10.128C32.4975 7.92 30.9935 6.08 28.5135 6.08C26.0655 6.08 24.5455 7.92 24.5455 10.128C24.5455 12.352 26.0655 14.192 28.5135 14.192ZM28.5135 12.704C27.0895 12.704 26.2895 11.504 26.2895 10.128C26.2895 8.768 27.0895 7.568 28.5135 7.568C29.9535 7.568 30.7535 8.768 30.7535 10.128C30.7535 11.504 29.9535 12.704 28.5135 12.704ZM35.8774 14V8.736C36.2134 8.192 37.1574 7.712 37.8614 7.712C38.0694 7.712 38.2454 7.728 38.3894 7.76V6.096C37.3814 6.096 36.4534 6.672 35.8774 7.408V6.272H34.1974V14H35.8774ZM49.883 14V10.016H52.699C54.923 10.016 56.187 8.48 56.187 6.672C56.187 4.864 54.939 3.328 52.699 3.328H48.011V14H49.883ZM54.267 6.672C54.267 7.696 53.499 8.368 52.443 8.368H49.883V4.976H52.443C53.499 4.976 54.267 5.648 54.267 6.672ZM64.6094 14V8.528C64.6094 6.944 63.7774 6.08 62.1134 6.08C60.8974 6.08 59.8894 6.72 59.3774 7.328V3.328H57.6974V14H59.3774V8.608C59.7774 8.08 60.5134 7.568 61.3614 7.568C62.3054 7.568 62.9294 7.936 62.9294 9.136V14H64.6094ZM70.2791 14.192C72.7591 14.192 74.2631 12.352 74.2631 10.128C74.2631 7.92 72.7591 6.08 70.2791 6.08C67.8311 6.08 66.3111 7.92 66.3111 10.128C66.3111 12.352 67.8311 14.192 70.2791 14.192ZM70.2791 12.704C68.8551 12.704 68.0551 11.504 68.0551 10.128C68.0551 8.768 68.8551 7.568 70.2791 7.568C71.7191 7.568 72.5191 8.768 72.5191 10.128C72.5191 11.504 71.7191 12.704 70.2791 12.704ZM78.283 14.192C79.067 14.192 79.563 13.984 79.867 13.696L79.467 12.432C79.339 12.576 79.035 12.704 78.715 12.704C78.235 12.704 77.979 12.32 77.979 11.792V7.744H79.547V6.272H77.979V4.16H76.299V6.272H75.019V7.744H76.299V12.208C76.299 13.488 76.987 14.192 78.283 14.192ZM84.5604 14.192C87.0404 14.192 88.5444 12.352 88.5444 10.128C88.5444 7.92 87.0404 6.08 84.5604 6.08C82.1124 6.08 80.5924 7.92 80.5924 10.128C80.5924 12.352 82.1124 14.192 84.5604 14.192ZM84.5604 12.704C83.1364 12.704 82.3364 11.504 82.3364 10.128C82.3364 8.768 83.1364 7.568 84.5604 7.568C86.0004 7.568 86.8004 8.768 86.8004 10.128C86.8004 11.504 86.0004 12.704 84.5604 12.704Z" fill="#B7B8B7"/>
<circle cx="99.5" cy="9.5" r="1.5" fill="#B7B8B7"/>
<path d="M117.528 14V12.352H112.792C115.656 10.192 117.464 8.432 117.464 6.464C117.464 4.336 115.656 3.168 113.592 3.168C112.104 3.168 110.6 3.744 109.656 4.88L110.744 6.112C111.416 5.344 112.376 4.832 113.624 4.832C114.6 4.832 115.56 5.344 115.56 6.464C115.56 8 113.944 9.392 109.8 12.528V14H117.528ZM119.172 8.672C119.172 11.36 120.452 14.192 123.444 14.192C126.436 14.192 127.716 11.36 127.716 8.672C127.716 5.984 126.436 3.168 123.444 3.168C120.452 3.168 119.172 5.984 119.172 8.672ZM125.812 8.672C125.812 10.704 125.188 12.528 123.444 12.528C121.7 12.528 121.076 10.704 121.076 8.672C121.076 6.64 121.7 4.832 123.444 4.832C125.188 4.832 125.812 6.64 125.812 8.672ZM136.903 14V12.352H132.167C135.031 10.192 136.839 8.432 136.839 6.464C136.839 4.336 135.031 3.168 132.967 3.168C131.479 3.168 129.975 3.744 129.031 4.88L130.119 6.112C130.791 5.344 131.751 4.832 132.999 4.832C133.975 4.832 134.935 5.344 134.935 6.464C134.935 8 133.319 9.392 129.175 12.528V14H136.903ZM138.547 8.672C138.547 11.36 139.827 14.192 142.819 14.192C145.811 14.192 147.091 11.36 147.091 8.672C147.091 5.984 145.811 3.168 142.819 3.168C139.827 3.168 138.547 5.984 138.547 8.672ZM145.187 8.672C145.187 10.704 144.563 12.528 142.819 12.528C141.075 12.528 140.451 10.704 140.451 8.672C140.451 6.64 141.075 4.832 142.819 4.832C144.563 4.832 145.187 6.64 145.187 8.672Z" fill="#B7B8B7"/>
<circle cx="157.5" cy="9.5" r="1.5" fill="#B7B8B7"/>
<path d="M175.528 14V12.352H170.792C173.656 10.192 175.464 8.432 175.464 6.464C175.464 4.336 173.656 3.168 171.592 3.168C170.104 3.168 168.6 3.744 167.656 4.88L168.744 6.112C169.416 5.344 170.376 4.832 171.624 4.832C172.6 4.832 173.56 5.344 173.56 6.464C173.56 8 171.944 9.392 167.8 12.528V14H175.528ZM184.516 14V8.528C184.516 6.944 183.684 6.08 182.02 6.08C180.804 6.08 179.796 6.72 179.284 7.328V3.328H177.604V14H179.284V8.608C179.684 8.08 180.42 7.568 181.268 7.568C182.212 7.568 182.836 7.936 182.836 9.136V14H184.516ZM188.377 14V8.736C188.713 8.192 189.657 7.712 190.361 7.712C190.569 7.712 190.745 7.728 190.889 7.76V6.096C189.881 6.096 188.953 6.672 188.377 7.408V6.272H186.697V14H188.377ZM203.794 14V12.352H199.058C201.922 10.192 203.73 8.432 203.73 6.464C203.73 4.336 201.922 3.168 199.858 3.168C198.37 3.168 196.866 3.744 195.922 4.88L197.01 6.112C197.682 5.344 198.642 4.832 199.89 4.832C200.866 4.832 201.826 5.344 201.826 6.464C201.826 8 200.21 9.392 196.066 12.528V14H203.794ZM209.725 14V3.328H208.093L205.021 6.432L206.109 7.568L207.853 5.76V14H209.725ZM223.099 14V8.416C223.099 6.848 222.299 6.08 220.875 6.08C219.723 6.08 218.699 6.8 218.251 7.504C217.995 6.656 217.291 6.08 216.139 6.08C214.971 6.08 213.947 6.848 213.627 7.328V6.272H211.947V14H213.627V8.608C213.979 8.096 214.667 7.568 215.403 7.568C216.315 7.568 216.683 8.128 216.683 8.96V14H218.363V8.592C218.699 8.096 219.403 7.568 220.155 7.568C221.051 7.568 221.419 8.128 221.419 8.96V14H223.099ZM226.108 4.992C226.684 4.992 227.148 4.528 227.148 3.952C227.148 3.376 226.684 2.912 226.108 2.912C225.548 2.912 225.068 3.376 225.068 3.952C225.068 4.528 225.548 4.992 226.108 4.992ZM226.956 14V6.272H225.276V14H226.956ZM236.031 14V8.56C236.031 6.976 235.199 6.08 233.535 6.08C232.319 6.08 231.327 6.72 230.815 7.328V6.272H229.135V14H230.815V8.608C231.199 8.08 231.935 7.568 232.799 7.568C233.743 7.568 234.351 7.968 234.351 9.168V14H236.031Z" fill="#B7B8B7"/>
<circle cx="247.5" cy="9.5" r="1.5" fill="#B7B8B7"/>
<path d="M266.392 14L263.784 9.808C265.064 9.6 266.312 8.576 266.312 6.672C266.312 4.704 264.936 3.328 262.824 3.328H258.136V14H260.008V10.016H261.864L264.232 14H266.392ZM264.392 6.672C264.392 7.696 263.624 8.368 262.568 8.368H260.008V4.976H262.568C263.624 4.976 264.392 5.648 264.392 6.672ZM271.139 14.192C273.619 14.192 275.123 12.352 275.123 10.128C275.123 7.92 273.619 6.08 271.139 6.08C268.691 6.08 267.171 7.92 267.171 10.128C267.171 12.352 268.691 14.192 271.139 14.192ZM271.139 12.704C269.715 12.704 268.914 11.504 268.914 10.128C268.914 8.768 269.715 7.568 271.139 7.568C272.579 7.568 273.379 8.768 273.379 10.128C273.379 11.504 272.579 12.704 271.139 12.704ZM287.974 14V8.416C287.974 6.848 287.174 6.08 285.75 6.08C284.598 6.08 283.574 6.8 283.126 7.504C282.87 6.656 282.166 6.08 281.014 6.08C279.846 6.08 278.822 6.848 278.502 7.328V6.272H276.822V14H278.502V8.608C278.854 8.096 279.542 7.568 280.278 7.568C281.19 7.568 281.558 8.128 281.558 8.96V14H283.238V8.592C283.574 8.096 284.278 7.568 285.03 7.568C285.926 7.568 286.294 8.128 286.294 8.96V14H287.974ZM296.551 14V8.88C296.551 6.8 295.047 6.08 293.335 6.08C292.103 6.08 290.983 6.48 290.087 7.328L290.775 8.496C291.447 7.84 292.199 7.52 293.062 7.52C294.135 7.52 294.871 8.064 294.871 8.96V10.112C294.311 9.456 293.415 9.12 292.375 9.12C291.111 9.12 289.687 9.856 289.687 11.632C289.687 13.344 291.111 14.192 292.375 14.192C293.399 14.192 294.295 13.824 294.871 13.168V14H296.551ZM294.871 12.24C294.487 12.768 293.766 13.04 293.031 13.04C292.087 13.04 291.383 12.496 291.383 11.664C291.383 10.816 292.087 10.272 293.031 10.272C293.766 10.272 294.487 10.544 294.871 11.072V12.24ZM305.625 14V8.56C305.625 6.976 304.793 6.08 303.129 6.08C301.913 6.08 300.921 6.72 300.409 7.328V6.272H298.729V14H300.409V8.608C300.793 8.08 301.529 7.568 302.393 7.568C303.337 7.568 303.945 7.968 303.945 9.168V14H305.625ZM307.327 10.128C307.327 12.48 308.975 14.192 311.327 14.192C312.831 14.192 313.743 13.552 314.287 12.816L313.183 11.792C312.751 12.384 312.159 12.704 311.407 12.704C309.999 12.704 309.071 11.632 309.071 10.128C309.071 8.624 309.999 7.568 311.407 7.568C312.159 7.568 312.751 7.872 313.183 8.48L314.287 7.456C313.743 6.72 312.831 6.08 311.327 6.08C308.975 6.08 307.327 7.792 307.327 10.128ZM315.28 10.128C315.28 12.576 317.008 14.192 319.328 14.192C320.56 14.192 321.696 13.808 322.464 13.072L321.696 11.968C321.152 12.512 320.256 12.816 319.504 12.816C318.048 12.816 317.168 11.856 317.04 10.688H323.008V10.288C323.008 7.856 321.52 6.08 319.2 6.08C316.912 6.08 315.28 7.888 315.28 10.128ZM319.2 7.456C320.72 7.456 321.344 8.592 321.376 9.504H317.024C317.104 8.56 317.76 7.456 319.2 7.456ZM332.792 14C336.12 14 338.376 11.808 338.376 8.672C338.376 5.536 336.12 3.328 332.792 3.328H328.824V14H332.792ZM330.696 4.976H332.792C335.176 4.976 336.456 6.608 336.456 8.672C336.456 10.688 335.112 12.352 332.792 12.352H330.696V4.976ZM341.815 14V8.736C342.151 8.192 343.095 7.712 343.799 7.712C344.007 7.712 344.183 7.728 344.327 7.76V6.096C343.319 6.096 342.391 6.672 341.815 7.408V6.272H340.135V14H341.815ZM352.082 14V8.88C352.082 6.8 350.578 6.08 348.866 6.08C347.634 6.08 346.514 6.48 345.618 7.328L346.306 8.496C346.978 7.84 347.73 7.52 348.594 7.52C349.666 7.52 350.402 8.064 350.402 8.96V10.112C349.842 9.456 348.946 9.12 347.906 9.12C346.642 9.12 345.218 9.856 345.218 11.632C345.218 13.344 346.642 14.192 347.906 14.192C348.93 14.192 349.826 13.824 350.402 13.168V14H352.082ZM350.402 12.24C350.018 12.768 349.298 13.04 348.562 13.04C347.618 13.04 346.914 12.496 346.914 11.664C346.914 10.816 347.618 10.272 348.562 10.272C349.298 10.272 350.018 10.544 350.402 11.072V12.24ZM365.412 14V8.416C365.412 6.848 364.612 6.08 363.188 6.08C362.036 6.08 361.012 6.8 360.564 7.504C360.308 6.656 359.604 6.08 358.452 6.08C357.284 6.08 356.26 6.848 355.94 7.328V6.272H354.26V14H355.94V8.608C356.292 8.096 356.98 7.568 357.716 7.568C358.628 7.568 358.996 8.128 358.996 8.96V14H360.676V8.592C361.012 8.096 361.716 7.568 362.468 7.568C363.364 7.568 363.732 8.128 363.732 8.96V14H365.412ZM373.988 14V8.88C373.988 6.8 372.484 6.08 370.772 6.08C369.54 6.08 368.42 6.48 367.524 7.328L368.212 8.496C368.884 7.84 369.636 7.52 370.5 7.52C371.572 7.52 372.308 8.064 372.308 8.96V10.112C371.748 9.456 370.852 9.12 369.812 9.12C368.548 9.12 367.124 9.856 367.124 11.632C367.124 13.344 368.548 14.192 369.812 14.192C370.836 14.192 371.732 13.824 372.308 13.168V14H373.988ZM372.308 12.24C371.924 12.768 371.204 13.04 370.468 13.04C369.524 13.04 368.82 12.496 368.82 11.664C368.82 10.816 369.524 10.272 370.468 10.272C371.204 10.272 371.924 10.544 372.308 11.072V12.24Z" fill="#B7B8B7"/>
</svg>
