<svg width="42" height="29" viewBox="0 0 42 29" fill="none" xmlns="http://www.w3.org/2000/svg">
<path d="M0 5.5C0 2.73858 2.23858 0.5 5 0.5H37C39.7614 0.5 42 2.73858 42 5.5V23.5C42 26.2614 39.7614 28.5 37 28.5H5C2.23858 28.5 0 26.2614 0 23.5V5.5Z" fill="#1A1D1E"/>
<path d="M12.71 14.87C12.71 16.51 13.66 17.62 15.6 17.62C17.53 17.62 18.48 16.52 18.48 14.86V10.83H17.3V14.83C17.3 15.89 16.71 16.58 15.6 16.58C14.48 16.58 13.89 15.89 13.89 14.83V10.83H12.71V14.87ZM19.9675 17.7L22.3375 10.63H21.5575L19.1875 17.7H19.9675ZM29.0518 17.5L26.4318 10.83H24.9718L22.3518 17.5H23.6318L24.1218 16.22H27.2818L27.7718 17.5H29.0518ZM26.9518 15.19H24.4518L25.7018 11.82L26.9518 15.19Z" fill="white"/>
<path d="M5 2.5H37V-1.5H5V2.5ZM40 5.5V23.5H44V5.5H40ZM37 26.5H5V30.5H37V26.5ZM2 23.5V5.5H-2V23.5H2ZM5 26.5C3.34315 26.5 2 25.1569 2 23.5H-2C-2 27.366 1.13401 30.5 5 30.5V26.5ZM40 23.5C40 25.1569 38.6569 26.5 37 26.5V30.5C40.866 30.5 44 27.366 44 23.5H40ZM37 2.5C38.6569 2.5 40 3.84315 40 5.5H44C44 1.63401 40.866 -1.5 37 -1.5V2.5ZM5 -1.5C1.13401 -1.5 -2 1.63401 -2 5.5H2C2 3.84315 3.34315 2.5 5 2.5V-1.5Z" fill="#35393F"/>
</svg>
