<svg width="92" height="37" viewBox="0 0 92 37" fill="none" xmlns="http://www.w3.org/2000/svg">
<path d="M0 5C0 2.23858 2.23858 0 5 0H87C89.7614 0 92 2.23858 92 5V32C92 34.7614 89.7614 37 87 37H5C2.23858 37 0 34.7614 0 32V5Z" fill="#1A1D1E"/>
<path d="M18.392 21.684C19.218 22.566 20.464 23.168 22.186 23.168C24.706 23.168 25.798 21.838 25.798 20.284C25.798 18.254 23.964 17.778 22.424 17.386C21.318 17.106 20.366 16.868 20.366 16.14C20.366 15.44 20.982 14.978 21.948 14.978C22.928 14.978 23.922 15.314 24.65 16.042L25.588 14.824C24.72 13.984 23.544 13.522 22.088 13.522C20.044 13.522 18.686 14.712 18.686 16.252C18.686 18.226 20.478 18.674 22.004 19.052C23.138 19.346 24.132 19.598 24.132 20.438C24.132 21.054 23.6 21.712 22.256 21.712C20.954 21.712 19.946 21.11 19.302 20.424L18.392 21.684ZM26.8445 19.612C26.8445 21.754 28.3565 23.168 30.3865 23.168C31.4645 23.168 32.4585 22.832 33.1305 22.188L32.4585 21.222C31.9825 21.698 31.1985 21.964 30.5405 21.964C29.2665 21.964 28.4965 21.124 28.3845 20.102H33.6065V19.752C33.6065 17.624 32.3045 16.07 30.2745 16.07C28.2725 16.07 26.8445 17.652 26.8445 19.612ZM30.2745 17.274C31.6045 17.274 32.1505 18.268 32.1785 19.066H28.3705C28.4405 18.24 29.0145 17.274 30.2745 17.274ZM40.6575 23V18.52C40.6575 16.7 39.3415 16.07 37.8435 16.07C36.7655 16.07 35.7855 16.42 35.0015 17.162L35.6035 18.184C36.1915 17.61 36.8495 17.33 37.6055 17.33C38.5435 17.33 39.1875 17.806 39.1875 18.59V19.598C38.6975 19.024 37.9135 18.73 37.0035 18.73C35.8975 18.73 34.6515 19.374 34.6515 20.928C34.6515 22.426 35.8975 23.168 37.0035 23.168C37.8995 23.168 38.6835 22.846 39.1875 22.272V23H40.6575ZM39.1875 21.46C38.8515 21.922 38.2215 22.16 37.5775 22.16C36.7515 22.16 36.1355 21.684 36.1355 20.956C36.1355 20.214 36.7515 19.738 37.5775 19.738C38.2215 19.738 38.8515 19.976 39.1875 20.438V21.46ZM41.9753 22.118C42.6753 22.804 43.7253 23.168 44.8733 23.168C46.6933 23.168 47.6873 22.258 47.6873 21.068C47.6873 19.472 46.2453 19.136 45.0693 18.884C44.2713 18.702 43.5993 18.52 43.5993 18.002C43.5993 17.526 44.0893 17.246 44.8593 17.246C45.6993 17.246 46.4553 17.596 46.8613 18.058L47.4773 17.022C46.8613 16.476 45.9933 16.07 44.8453 16.07C43.1373 16.07 42.1853 17.022 42.1853 18.128C42.1853 19.64 43.5713 19.948 44.7333 20.2C45.5593 20.382 46.2733 20.592 46.2733 21.18C46.2733 21.684 45.8253 22.006 44.9433 22.006C44.0613 22.006 43.1233 21.544 42.6473 21.054L41.9753 22.118ZM52.2188 23.168C54.3888 23.168 55.7048 21.558 55.7048 19.612C55.7048 17.68 54.3888 16.07 52.2188 16.07C50.0768 16.07 48.7468 17.68 48.7468 19.612C48.7468 21.558 50.0768 23.168 52.2188 23.168ZM52.2188 21.866C50.9728 21.866 50.2728 20.816 50.2728 19.612C50.2728 18.422 50.9728 17.372 52.2188 17.372C53.4788 17.372 54.1788 18.422 54.1788 19.612C54.1788 20.816 53.4788 21.866 52.2188 21.866ZM63.2262 23V18.24C63.2262 16.854 62.4982 16.07 61.0422 16.07C59.9782 16.07 59.1102 16.63 58.6622 17.162V16.238H57.1922V23H58.6622V18.282C58.9982 17.82 59.6422 17.372 60.3982 17.372C61.2242 17.372 61.7562 17.722 61.7562 18.772V23H63.2262ZM72.1053 23V13.662H70.6773L67.9893 16.378L68.9413 17.372L70.4673 15.79V23H72.1053Z" fill="white"/>
<path d="M5 2H87V-2H5V2ZM90 5V32H94V5H90ZM87 35H5V39H87V35ZM2 32V5H-2V32H2ZM5 35C3.34315 35 2 33.6569 2 32H-2C-2 35.866 1.13401 39 5 39V35ZM90 32C90 33.6569 88.6569 35 87 35V39C90.866 39 94 35.866 94 32H90ZM87 2C88.6569 2 90 3.34315 90 5H94C94 1.13401 90.866 -2 87 -2V2ZM5 -2C1.13401 -2 -2 1.13401 -2 5H2C2 3.34315 3.34315 2 5 2V-2Z" fill="#35393F"/>
</svg>
