<svg width="42" height="42" viewBox="0 0 42 42" fill="none" xmlns="http://www.w3.org/2000/svg">
<circle cx="21" cy="21" r="20" fill="url(#paint0_linear_353_4484)"/>
<path fill-rule="evenodd" clip-rule="evenodd" d="M26 16C27.1046 16 28 15.1046 28 14C28 12.8954 27.1046 12 26 12C24.8954 12 24 12.8954 24 14C24 15.1046 24.8954 16 26 16ZM26 18C28.2091 18 30 16.2091 30 14C30 11.7909 28.2091 10 26 10C23.7909 10 22 11.7909 22 14C22 14.5681 22.1184 15.1085 22.3319 15.598L18.2347 17.6466C17.5074 16.6486 16.3294 16 15 16C12.7909 16 11 17.7909 11 20C11 22.2091 12.7909 24 15 24C16.1884 24 17.2558 23.4817 17.9884 22.6589L22.2822 25.5214C22.1001 25.9788 22 26.4777 22 27C22 29.2091 23.7909 31 26 31C28.2091 31 30 29.2091 30 27C30 24.7909 28.2091 23 26 23C25.0377 23 24.1547 23.3398 23.4646 23.906L18.9058 20.8668C18.9675 20.5877 19 20.2977 19 20C19 19.8357 18.9901 19.6737 18.9708 19.5146L23.5998 17.2001C24.2683 17.7024 25.0994 18 26 18ZM26 29C27.1046 29 28 28.1046 28 27C28 25.8954 27.1046 25 26 25C24.8954 25 24 25.8954 24 27C24 28.1046 24.8954 29 26 29ZM17 20C17 21.1046 16.1046 22 15 22C13.8954 22 13 21.1046 13 20C13 18.8954 13.8954 18 15 18C16.1046 18 17 18.8954 17 20Z" fill="#7E7D85"/>
<defs>
<linearGradient id="paint0_linear_353_4484" x1="21" y1="1" x2="21" y2="41" gradientUnits="userSpaceOnUse">
<stop stop-color="#3B3F44"/>
<stop offset="1" stop-color="#2E3138"/>
</linearGradient>
</defs>
</svg>
