<svg width="193" height="29" viewBox="0 0 193 29" fill="none" xmlns="http://www.w3.org/2000/svg">
<path d="M0 5C0 2.23858 2.23858 0 5 0H87C89.7614 0 92 2.23858 92 5V24C92 26.7614 89.7614 29 87 29H5C2.23858 29 0 26.7614 0 24V5Z" fill="#1A1D1E"/>
<path d="M18 20.4981L12.3259 14.7676C12.142 14.5819 12.1322 14.2859 12.3033 14.0884L14.2453 11.8468C14.4453 11.616 14.8037 11.6168 15.0026 11.8486L19.5 17.0895L26.6481 8.4265C26.8365 8.19821 27.1808 8.1826 27.389 8.39292L29.6597 10.6861C29.8494 10.8778 29.8546 11.1838 29.6691 11.3795C26.935 14.2651 21.7767 19.6258 20.625 20.4981C19.425 21.4071 18.375 20.8769 18 20.4981Z" fill="url(#paint0_linear_168_1321)"/>
<path d="M41.88 17.5V15.01H43.64C45.03 15.01 45.82 14.05 45.82 12.92C45.82 11.79 45.04 10.83 43.64 10.83H40.71V17.5H41.88ZM44.62 12.92C44.62 13.56 44.14 13.98 43.48 13.98H41.88V11.86H43.48C44.14 11.86 44.62 12.28 44.62 12.92ZM47.814 17.5V14.21C48.024 13.87 48.614 13.57 49.054 13.57C49.184 13.57 49.294 13.58 49.384 13.6V12.56C48.754 12.56 48.174 12.92 47.814 13.38V12.67H46.764V17.5H47.814ZM49.9308 15.08C49.9308 16.61 51.0108 17.62 52.4608 17.62C53.2308 17.62 53.9408 17.38 54.4208 16.92L53.9408 16.23C53.6008 16.57 53.0408 16.76 52.5708 16.76C51.6608 16.76 51.1108 16.16 51.0308 15.43H54.7608V15.18C54.7608 13.66 53.8308 12.55 52.3808 12.55C50.9508 12.55 49.9308 13.68 49.9308 15.08ZM52.3808 13.41C53.3308 13.41 53.7208 14.12 53.7408 14.69H51.0208C51.0708 14.1 51.4808 13.41 52.3808 13.41ZM62.7672 17.5V14.01C62.7672 13.03 62.2672 12.55 61.3772 12.55C60.6572 12.55 60.0172 13 59.7372 13.44C59.5772 12.91 59.1372 12.55 58.4172 12.55C57.6872 12.55 57.0472 13.03 56.8472 13.33V12.67H55.7972V17.5H56.8472V14.13C57.0672 13.81 57.4972 13.48 57.9572 13.48C58.5272 13.48 58.7572 13.83 58.7572 14.35V17.5H59.8072V14.12C60.0172 13.81 60.4572 13.48 60.9272 13.48C61.4872 13.48 61.7172 13.83 61.7172 14.35V17.5H62.7672ZM64.6473 11.87C65.0073 11.87 65.2973 11.58 65.2973 11.22C65.2973 10.86 65.0073 10.57 64.6473 10.57C64.2973 10.57 63.9973 10.86 63.9973 11.22C63.9973 11.58 64.2973 11.87 64.6473 11.87ZM65.1773 17.5V12.67H64.1273V17.5H65.1773ZM70.8494 17.5V12.67H69.7994V16.06C69.5494 16.39 69.0894 16.69 68.5594 16.69C67.9694 16.69 67.5894 16.46 67.5894 15.71V12.67H66.5394V16.09C66.5394 17.08 67.0494 17.62 68.0894 17.62C68.8494 17.62 69.4494 17.25 69.7994 16.86V17.5H70.8494ZM79.1832 17.5V14.01C79.1832 13.03 78.6832 12.55 77.7932 12.55C77.0732 12.55 76.4332 13 76.1532 13.44C75.9932 12.91 75.5532 12.55 74.8332 12.55C74.1032 12.55 73.4632 13.03 73.2632 13.33V12.67H72.2132V17.5H73.2632V14.13C73.4832 13.81 73.9132 13.48 74.3732 13.48C74.9432 13.48 75.1732 13.83 75.1732 14.35V17.5H76.2232V14.12C76.4332 13.81 76.8732 13.48 77.3432 13.48C77.9032 13.48 78.1332 13.83 78.1332 14.35V17.5H79.1832Z" fill="white"/>
<path d="M5 2H87V-2H5V2ZM90 5V24H94V5H90ZM87 27H5V31H87V27ZM2 24V5H-2V24H2ZM5 27C3.34315 27 2 25.6569 2 24H-2C-2 27.866 1.134 31 5 31V27ZM90 24C90 25.6569 88.6569 27 87 27V31C90.866 31 94 27.866 94 24H90ZM87 2C88.6569 2 90 3.34315 90 5H94C94 1.13401 90.866 -2 87 -2V2ZM5 -2C1.13401 -2 -2 1.13401 -2 5H2C2 3.34315 3.34315 2 5 2V-2Z" fill="#35393F"/>
<path d="M104 5.5C104 2.73858 106.239 0.5 109 0.5H141C143.761 0.5 146 2.73858 146 5.5V23.5C146 26.2614 143.761 28.5 141 28.5H109C106.239 28.5 104 26.2614 104 23.5V5.5Z" fill="#1A1D1E"/>
<path d="M116.71 14.87C116.71 16.51 117.66 17.62 119.6 17.62C121.53 17.62 122.48 16.52 122.48 14.86V10.83H121.3V14.83C121.3 15.89 120.71 16.58 119.6 16.58C118.48 16.58 117.89 15.89 117.89 14.83V10.83H116.71V14.87ZM123.968 17.7L126.338 10.63H125.558L123.188 17.7H123.968ZM133.052 17.5L130.432 10.83H128.972L126.352 17.5H127.632L128.122 16.22H131.282L131.772 17.5H133.052ZM130.952 15.19H128.452L129.702 11.82L130.952 15.19Z" fill="white"/>
<path d="M109 2.5H141V-1.5H109V2.5ZM144 5.5V23.5H148V5.5H144ZM141 26.5H109V30.5H141V26.5ZM106 23.5V5.5H102V23.5H106ZM109 26.5C107.343 26.5 106 25.1569 106 23.5H102C102 27.366 105.134 30.5 109 30.5V26.5ZM144 23.5C144 25.1569 142.657 26.5 141 26.5V30.5C144.866 30.5 148 27.366 148 23.5H144ZM141 2.5C142.657 2.5 144 3.84315 144 5.5H148C148 1.63401 144.866 -1.5 141 -1.5V2.5ZM109 -1.5C105.134 -1.5 102 1.63401 102 5.5H106C106 3.84315 107.343 2.5 109 2.5V-1.5Z" fill="#35393F"/>
<path d="M158 6.5C158 3.73858 160.239 1.5 163 1.5H188C190.761 1.5 193 3.73858 193 6.5V22.5C193 25.2614 190.761 27.5 188 27.5H163C160.239 27.5 158 25.2614 158 22.5V6.5Z" fill="#1A1D1E"/>
<path d="M172.5 17.5L175.08 11.64V10.83H170.27V11.86H173.73L171.21 17.5H172.5ZM180.052 14.46V13.79H178.202V11.78H177.462V13.79H175.612V14.46H177.462V16.54H178.202V14.46H180.052Z" fill="white"/>
<path d="M163 3.5H188V-0.5H163V3.5ZM191 6.5V22.5H195V6.5H191ZM188 25.5H163V29.5H188V25.5ZM160 22.5V6.5H156V22.5H160ZM163 25.5C161.343 25.5 160 24.1569 160 22.5H156C156 26.366 159.134 29.5 163 29.5V25.5ZM191 22.5C191 24.1569 189.657 25.5 188 25.5V29.5C191.866 29.5 195 26.366 195 22.5H191ZM188 3.5C189.657 3.5 191 4.84315 191 6.5H195C195 2.63401 191.866 -0.5 188 -0.5V3.5ZM163 -0.5C159.134 -0.5 156 2.63401 156 6.5H160C160 4.84315 161.343 3.5 163 3.5V-0.5Z" fill="#35393F"/>
<defs>
<linearGradient id="paint0_linear_168_1321" x1="21" y1="8" x2="21" y2="21" gradientUnits="userSpaceOnUse">
<stop stop-color="#FF6101"/>
<stop offset="1" stop-color="#FF9601"/>
</linearGradient>
</defs>
</svg>
